<?xml version="1.0" encoding="UTF-8"?>
<svg xmlns="http://www.w3.org/2000/svg" viewBox="0 0 1694.57 789.7">
  <defs>
    <style>
      .cls-1 {
        font-family: Rockwell-ExtraBold, 'Rockwell Extra Bold';
        font-size: 250px;
        font-weight: 700;
      }

      .cls-1, .cls-2 {
        fill: #ed1c24;
      }

      .cls-3, .cls-4 {
        fill: none;
      }

      .cls-4 {
        stroke: #ed1c24;
        stroke-miterlimit: 10;
        stroke-width: 20px;
      }
    </style>
  </defs>
  <g id="Third">
    <circle class="cls-4" cx="1434.57" cy="529.7" r="250"/>
    <g>
      <path class="cls-2" d="M1585.51,557.46l34.66,69.37c.3,4.79.75,10.39-5.08,11.66-119.57.62-239.24.08-358.84.27-7.58-.52-7.7-5.52-7.3-11.92,11.86-22.34,22.13-45.55,33.94-67.91.16-.3.79-1.42,1.01-1.5h301.61ZM1273.98,602.11c.29.28.91.26,1.3.27h318.96c1.31.04,1.64-1.2,1.18-2.25l-17.71-34.98-.85-.4-284.22-.02c-1.11-.09-1.39.68-1.88,1.47l-17.23,34.82c0,.21.31.96.45,1.09ZM1393.92,606.82c-1.54.23-2.67.93-3.19,2.46-.64,1.88-2.04,10.3-2.1,12.33-.05,1.83,1.09,2.51,2.75,2.7l86.15.03c1.98-.17,3.14-.91,3-3.01-.17-2.6-1.27-9.35-2-11.8-.47-1.57-1.52-2.44-3.15-2.7h-81.46Z"/>
      <path class="cls-2" d="M1585.55,551.77h-301.79v-176.18c0-4,5.83-9.49,9.93-9.52h281.52c4.61,0,10.34,5.61,10.34,10.15v175.55ZM1573.84,377.58h-278.26l-.31.31v162.17h278.58v-162.48Z"/>
      <polygon class="cls-2" points="1477.84 590.88 1478.47 599.66 1390.94 599.66 1390.67 599.19 1391.47 590.88 1477.84 590.88"/>
      <path class="cls-2" d="M1433.09,587.95h-19.87v-8.47l.31-.31h19.45c.62,0,.11,1.81.1,2.19-.07,2.19.07,4.4,0,6.6Z"/>
      <rect class="cls-2" x="1436.01" y="567.67" width="19.87" height="8.78"/>
      <rect class="cls-2" x="1436.01" y="579.17" width="19.87" height="8.78"/>
      <polygon class="cls-2" points="1433.09 567.67 1433.09 576.45 1413.53 576.45 1413.22 576.13 1413.22 567.67 1433.09 567.67"/>
      <polygon class="cls-2" points="1587.64 590.88 1591.82 599.66 1572.06 599.66 1568.4 590.88 1587.64 590.88"/>
      <polygon class="cls-2" points="1300.91 590.88 1297.04 599.66 1277.48 599.66 1281.77 590.88 1300.91 590.88"/>
      <polygon class="cls-2" points="1388.54 590.88 1387.91 599.14 1387.6 599.66 1368.36 599.66 1368.13 599.23 1369.51 590.88 1388.54 590.88"/>
      <polygon class="cls-2" points="1501.06 599.66 1481.4 599.66 1480.77 590.88 1499.49 590.88 1501.06 599.66"/>
      <polygon class="cls-2" points="1366.58 590.88 1365.01 599.66 1345.77 599.66 1345.53 599.23 1347.55 590.88 1366.58 590.88"/>
      <polygon class="cls-2" points="1543.51 590.88 1546.23 599.66 1526.57 599.66 1524.48 590.88 1543.51 590.88"/>
      <polygon class="cls-2" points="1521.55 590.88 1523.64 599.66 1503.98 599.66 1502.52 590.88 1521.55 590.88"/>
      <polygon class="cls-2" points="1344.62 590.88 1342.53 599.66 1323.08 599.66 1325.79 590.88 1344.62 590.88"/>
      <polygon class="cls-2" points="1322.87 590.88 1319.94 599.66 1300.49 599.66 1303.84 590.88 1322.87 590.88"/>
      <polygon class="cls-2" points="1565.26 590.88 1568.82 599.66 1549.47 599.66 1546.44 590.88 1565.26 590.88"/>
      <polygon class="cls-2" points="1305.72 579.17 1302.16 587.95 1283.13 587.95 1287.63 579.17 1305.72 579.17"/>
      <polygon class="cls-2" points="1581.79 579.17 1585.97 587.95 1567.25 587.95 1563.59 579.17 1581.79 579.17"/>
      <polygon class="cls-2" points="1410.5 579.17 1410.5 587.95 1391.67 587.95 1392.3 579.69 1392.62 579.17 1410.5 579.17"/>
      <polygon class="cls-2" points="1497.71 579.17 1499.17 587.95 1480.35 587.95 1479.72 579.17 1497.71 579.17"/>
      <polygon class="cls-2" points="1389.58 579.17 1388.75 587.95 1370.13 587.95 1371.7 579.17 1389.58 579.17"/>
      <polygon class="cls-2" points="1368.46 579.17 1367.21 587.95 1348.38 587.95 1350.79 579.17 1368.46 579.17"/>
      <polygon class="cls-2" points="1476.8 579.17 1477.63 587.95 1458.81 587.95 1458.81 579.17 1476.8 579.17"/>
      <polygon class="cls-2" points="1539.54 579.17 1542.47 587.95 1523.64 587.95 1521.55 579.17 1539.54 579.17"/>
      <polygon class="cls-2" points="1518.62 579.17 1520.72 587.95 1502.1 587.95 1500.64 579.17 1518.62 579.17"/>
      <polygon class="cls-2" points="1347.55 579.17 1345.45 587.95 1326.84 587.95 1329.87 579.17 1347.55 579.17"/>
      <polygon class="cls-2" points="1326.63 579.17 1323.91 587.95 1305.3 587.95 1308.96 579.17 1326.63 579.17"/>
      <polygon class="cls-2" points="1560.45 579.17 1564.01 587.95 1545.5 587.95 1542.47 579.17 1560.45 579.17"/>
      <polygon class="cls-2" points="1310.53 567.67 1306.97 576.45 1288.99 576.45 1293.17 567.67 1310.53 567.67"/>
      <polygon class="cls-2" points="1580.32 576.45 1562.44 576.45 1558.78 567.67 1575.82 567.67 1580.32 576.45"/>
      <polygon class="cls-2" points="1410.5 567.67 1410.5 576.45 1392.72 576.45 1393.35 567.67 1410.5 567.67"/>
      <polygon class="cls-2" points="1495.83 567.67 1497.29 576.45 1479.51 576.45 1478.68 567.67 1495.83 567.67"/>
      <polygon class="cls-2" points="1390.42 567.67 1389.79 576.45 1372.02 576.45 1373.58 567.67 1390.42 567.67"/>
      <polygon class="cls-2" points="1370.55 567.67 1369.09 576.45 1351.31 576.45 1353.4 567.67 1370.55 567.67"/>
      <polygon class="cls-2" points="1475.96 567.67 1476.59 576.45 1458.81 576.45 1458.81 567.67 1475.96 567.67"/>
      <polygon class="cls-2" points="1535.77 567.67 1538.49 576.45 1521.03 576.45 1518.62 567.67 1535.77 567.67"/>
      <polygon class="cls-2" points="1515.7 567.67 1517.79 576.45 1500.32 576.45 1498.76 567.67 1515.7 567.67"/>
      <polygon class="cls-2" points="1350.47 567.67 1348.38 576.45 1330.61 576.45 1333.53 567.67 1350.47 567.67"/>
      <polygon class="cls-2" points="1330.61 567.67 1327.68 576.45 1310.11 576.45 1313.77 567.67 1330.61 567.67"/>
      <polygon class="cls-2" points="1555.64 567.67 1559.2 576.45 1541.73 576.45 1538.7 567.67 1555.64 567.67"/>
    </g>
  </g>
  <g id="Second">
    <circle class="cls-4" cx="847.29" cy="529.7" r="250"/>
    <g>
      <path class="cls-2" d="M1004.34,495.8c-6.56-4.75-15.47-3.83-22.96-6.14-5.46-33.71-23.96-64.53-50.87-85.33-45.1-34.86-106.89-37.85-155.18-7.39-32.47,20.49-55.36,54.64-61.5,92.71-7.41,2.33-16.41,1.35-22.85,6.14.01-2.54.43-5.21.81-7.76,13.82-92.55,105.51-152.94,196.4-128.81,62.92,16.71,109.97,71.55,116.16,136.57Z"/>
      <path class="cls-2" d="M686.48,515.13l20.42,115.9-.37.48-22.8,4.01c-1.04-.01-1.5-.98-2.05-1.7-12.29-16.27-21.15-36.42-24.17-56.67s-.8-38.77,5-57.53l23.96-4.49Z"/>
      <path class="cls-2" d="M1008.74,515.13l23.96,4.49c1.69,6.19,3.43,12.42,4.53,18.75,5.91,34.01-3.07,68.15-23.7,95.45-.54.72-1.01,1.69-2.05,1.7l-22.8-4.01-.37-.48,20.42-115.9Z"/>
      <path class="cls-2" d="M741.99,631.93c-.27.3-1.01.56-1.42.67-5.55,1.49-12.12,1.68-17.76,3.11-.85,0-1.64-.49-1.95-1.29l-22.27-126.01c-.16-1.07-.05-2.2,1.07-2.61l18.4-3.35c.87-.06,1.72.57,2.04,1.36l22.34,127.15c-.14.3-.24.74-.46.98Z"/>
      <path class="cls-2" d="M976.83,502.44l18.57,3.3c1.07.28,1.38,1.23,1.28,2.25l-22.22,126.07c-.12.97-.99,1.44-1.86,1.66l-18.12-3.17c-1.15-.19-1.74-1.07-1.76-2.19l22.54-126.86,1.57-1.07Z"/>
      <path class="cls-2" d="M995.56,646.06c.26.27-1.69,4.67-2.01,5.35-10.8,23.34-34.51,39.22-60.27,40.56h-52.39c1.08-4.33,1.19-8.86,0-13.18h51.3c18.8-1,36.21-11.09,46.1-27.04.95-1.52,2.2-4.56,3.1-5.69.48-.6,1.59-1.14,2.08-1.88l12.08,1.87Z"/>
      <path class="cls-2" d="M835.81,674.45c7.42.38,15.7-.7,23.02-.06,12.56,1.09,13.12,20.71-.48,21.95-6.86-.33-14.28.54-21.07.04-13.24-.98-14.25-19.29-1.47-21.92Z"/>
    </g>
  </g>
  <g id="First">
    <circle class="cls-4" cx="260" cy="529.7" r="250"/>
    <g>
      <path class="cls-2" d="M346.94,414.28c.83-.17,2.76-2.03,3.61-2.25,1.16-.3,3.01-.19,4.24-.26l.02-5c4.67-1.29,9.37-2.54,14.17-3.31,7.96-1.27,15.37-1.58,23.28.25,4.49,1.04,9.04,2.74,13.08,4.92l.11,4.18,3.86.84c4.64,8.31,10.33,16.01,15.13,24.21,8.39,14.33,12.12,34.05,15.85,50.28,5.75,25.02,11.44,51.77,13.91,77.32s3.4,65.32-21.41,79.24c-26.96,15.12-49.9-7.71-59.88-31.22-6.82-16.04-11.94-33.13-18.16-49.43l-5.53-4.53c-.23-.04-2.66,2.33-3.11,2.7-14.59,11.86-34.46,11.64-48.66-.72-.8-.7-2.33-2.72-3.23-2.84l-69.07.02c-11.17,11.46-27.28,15.64-42.38,9.3-4.55-1.91-8.4-4.71-12.01-8.03l-4.9,3.9c-6.1,15.97-11.18,32.61-17.74,48.39-8.65,20.82-28.03,43.91-53.42,35.64-33.34-10.85-31.06-59.43-27.85-87.4,2.97-25.93,8.72-52.8,14.73-78.19,2.5-10.57,5.01-22.11,8.74-32.27,4.83-13.16,14.04-24.13,20.86-36.27l3.77-.94c.2-.99-.38-3.8.35-4.36,1.09-.85,5.38-2.43,6.88-2.96,2.61-.92,5.51-1.73,8.23-2.23,11.77-2.19,23.85.26,35.18,3.51l.22,4.91c.26.18,3.39.15,4.21.39.68.2,3.19,2.21,3.44,2.21h20.82v62.88c0,5.73,6.43,12.82,12.13,13.61,35.98.71,72.08.11,108.1.3,6.23-.23,13.71-7.5,13.71-13.7v-63.09h18.73ZM381.32,433.38c-4.19.5-8.17,3.87-9.59,7.78-4.1,11.33,8.68,21.07,18.49,14.09,10.17-7.24,3.96-23.42-8.9-21.87ZM132.89,440.49c-1.55.26-3.19,1.9-3.45,3.45-.34,2.05-.25,8.01-.06,10.21.35,4.08,3.8,8.41,6.91,10.88,1.76,1.39,3.86,1.68,5.76.31,1.52-1.1,5.19-5.1,6-6.76,1.73-3.54,1.77-9.71,1.44-13.65-.17-2.01-1.57-4.15-3.68-4.48-1.96-.31-10.97-.29-12.91.04ZM353.91,460.8c-4.18.5-8.18,3.87-9.59,7.78-4.07,11.35,8.67,21.08,18.49,14.09s3.92-23.42-8.9-21.87ZM408.74,460.8c-8.04.97-12.64,10.17-9.14,17.39,4.13,8.52,16.39,9.2,21.28,1.03,5.38-9-1.8-19.66-12.14-18.42ZM110.5,462.88c-1.68.29-3.32,2.14-3.5,3.82-.28,2.59-.33,10.01.02,12.54.27,2,2.34,3.48,4.27,3.68,3.72.37,10.38.29,13.72-1.35,1.64-.81,6.24-4.91,7.15-6.45,2.09-3.56-1.71-6.93-4.23-9.04-1.81-1.52-4.64-3.01-7.02-3.24-2.14-.21-8.42-.29-10.41.05ZM157.6,462.89c-3.85.46-8.22,4.07-10.53,7.05-1.55,2.01-1.23,4.31.31,6.18,5.64,6.84,11.38,7.59,20,6.8,2.38-.22,4.24-1.88,4.49-4.3.21-2.13.28-10.98-.27-12.7-.43-1.37-1.96-2.85-3.41-3.08-2.02-.32-8.48-.21-10.6.05ZM139.36,479.44c-2.36.04-5.44,3.37-6.94,5.15-1.23,1.46-2.28,3.36-2.72,5.23-.49,2.1-.62,9.62-.26,11.78.29,1.7,1.96,3.38,3.66,3.66,2.1.35,10.28.31,12.45,0,1.81-.26,3.52-1.9,3.83-3.7.36-2.03.28-7.58.09-9.74-.24-2.73-1.61-5.48-3.35-7.53-1.5-1.78-4.35-4.88-6.76-4.84ZM381.32,488.21c-13.86,1.67-13.65,23.11.78,24.21,17.47,1.34,17.33-26.39-.78-24.21ZM195.69,510.6c-18.01,1.34-27.8,21.77-17.29,36.62,10.4,14.7,33.13,12.2,40.18-4.32s-5.71-33.59-22.89-32.3ZM320.63,510.6c-15.99,1.14-26.12,17.73-19.67,32.51,7.34,16.81,30.81,18.69,40.72,3.19,10.22-15.98-2.15-37.06-21.06-35.7Z"/>
      <path class="cls-2" d="M322.14,414.28v62.88c0,3.26-4.67,7.85-8.06,7.84h-105.28c-3.67.17-8.47-4.5-8.47-8.05v-62.67h121.8Z"/>
      <path class="cls-3" d="M320.63,510.6c18.91-1.35,31.28,19.73,21.06,35.7-9.91,15.5-33.38,13.62-40.72-3.19-6.45-14.78,3.68-31.37,19.67-32.51Z"/>
      <path class="cls-3" d="M195.69,510.6c17.18-1.28,29.66,16.45,22.89,32.3s-29.78,19.02-40.18,4.32c-10.51-14.86-.72-35.28,17.29-36.62Z"/>
      <path class="cls-3" d="M353.91,460.8c12.82-1.54,19.13,14.6,8.9,21.87s-22.56-2.74-18.49-14.09c1.41-3.92,5.41-7.28,9.59-7.78Z"/>
      <path class="cls-3" d="M408.74,460.8c10.34-1.24,17.52,9.42,12.14,18.42-4.89,8.17-17.15,7.49-21.28-1.03-3.5-7.22,1.1-16.42,9.14-17.39Z"/>
      <path class="cls-3" d="M381.32,488.21c18.12-2.18,18.25,25.55.78,24.21-14.43-1.1-14.64-22.55-.78-24.21Z"/>
      <path class="cls-3" d="M381.32,433.38c12.86-1.55,19.07,14.64,8.9,21.87-9.81,6.98-22.59-2.76-18.49-14.09,1.42-3.92,5.39-7.28,9.59-7.78Z"/>
      <path class="cls-3" d="M139.36,479.44c2.41-.04,5.26,3.07,6.76,4.84,1.74,2.05,3.11,4.8,3.35,7.53.19,2.16.27,7.71-.09,9.74-.32,1.8-2.02,3.44-3.83,3.7-2.17.31-10.35.36-12.45,0-1.7-.29-3.38-1.96-3.66-3.66-.36-2.15-.23-9.67.26-11.78.44-1.87,1.49-3.78,2.72-5.23,1.5-1.78,4.59-5.11,6.94-5.15Z"/>
      <path class="cls-3" d="M157.6,462.89c2.12-.25,8.58-.36,10.6-.05,1.45.23,2.98,1.71,3.41,3.08.54,1.72.48,10.57.27,12.7-.24,2.42-2.1,4.08-4.49,4.3-8.62.79-14.36.03-20-6.8-1.55-1.88-1.87-4.17-.31-6.18,2.31-2.99,6.68-6.59,10.53-7.05Z"/>
      <path class="cls-3" d="M110.5,462.88c2-.34,8.28-.26,10.41-.05,2.37.23,5.21,1.72,7.02,3.24,2.52,2.12,6.32,5.49,4.23,9.04-.91,1.54-5.51,5.65-7.15,6.45-3.33,1.64-10,1.72-13.72,1.35-1.93-.19-4-1.68-4.27-3.68-.34-2.52-.3-9.94-.02-12.54.18-1.68,1.82-3.53,3.5-3.82Z"/>
      <path class="cls-3" d="M132.89,440.49c1.95-.33,10.95-.34,12.91-.04,2.12.33,3.51,2.47,3.68,4.48.34,3.93.3,10.11-1.44,13.65-.81,1.66-4.48,5.67-6,6.76-1.9,1.37-4,1.08-5.76-.31-3.11-2.47-6.56-6.8-6.91-10.88-.19-2.2-.28-8.16.06-10.21.26-1.55,1.9-3.19,3.45-3.45Z"/>
    </g>
  </g>
  <g id="CTK">
    <text class="cls-1" transform="translate(537.57 209.87)"><tspan x="0" y="0">CTK</tspan></text>
  </g>
</svg>